<?xml version="1.0" encoding="iso-8859-1"?>
<!-- Generator: Adobe Illustrator 18.1.1, SVG Export Plug-In . SVG Version: 6.00 Build 0)  -->
<svg version="1.1" id="Capa_1" xmlns="http://www.w3.org/2000/svg" xmlns:xlink="http://www.w3.org/1999/xlink" x="0px" y="0px"
	 viewBox="0 0 494.34 494.34" style="enable-background:new 0 0 494.34 494.34;" xml:space="preserve">
<g>
	<path style="fill:#797575;" d="M449.585,457.418V16.784C449.585,3.372,436.204,0,432.78,0S95.173,0,95.173,0
		c-50.4,0-50.438,46.64-50.438,46.64v429.816c0,9.852,8.013,17.884,17.958,17.884h322.349c9.852,0,17.863-8.032,17.863-17.884
		l28.738-0.075C450.929,476.399,449.585,457.418,449.585,457.418z M317.64,148.898H132.766v-34.933H317.64V148.898z
		 M411.732,440.171c-6.875,0-8.826,0.031-8.826,0.031V320.606V65.337c0-9.927-8.014-17.939-17.863-17.939L80.018,47.303
		c0-12.295,12.611-18.546,18.47-18.546c3.995,0,304.4,0,304.4,0c19.059,0,18.508,16.784,18.508,16.784l0.02,383.78
		C421.415,431.824,422.325,440.171,411.732,440.171z"/>
</g>
<g>
</g>
<g>
</g>
<g>
</g>
<g>
</g>
<g>
</g>
<g>
</g>
<g>
</g>
<g>
</g>
<g>
</g>
<g>
</g>
<g>
</g>
<g>
</g>
<g>
</g>
<g>
</g>
<g>
</g>
</svg>
