<svg width="305" height="89" viewBox="0 0 305 89" fill="none" xmlns="http://www.w3.org/2000/svg">
<path d="M22.1502 86.2321C16.7303 86.2321 10.0943 85.6265 2.24231 84.4152V72.6659C11.9009 74.3617 18.6064 75.2096 22.3587 75.2096C25.5551 75.2096 27.9176 74.8462 29.4463 74.1194C30.975 73.3927 31.7394 72.0603 31.7394 70.1223V66.4885C31.7394 64.4697 31.253 63.0566 30.2801 62.2491C29.3073 61.3608 27.3964 60.9167 24.5475 60.9167H17.981C12.6306 60.9167 8.4961 59.7054 5.57767 57.2828C2.65923 54.7796 1.20001 51.1458 1.20001 46.3814V39.235C1.20001 34.1476 3.28461 30.5542 7.4538 28.4547C11.623 26.2744 17.9115 25.1843 26.3194 25.1843C29.6548 25.1843 35.6306 25.5476 44.2469 26.2744V37.5392C33.407 36.5702 27.2922 36.0857 25.9025 36.0857C21.8028 36.0857 19.1275 36.4087 17.8768 37.0547C16.765 37.7814 16.2091 39.1138 16.2091 41.0519V44.2012C16.2091 45.2509 16.6608 46.1795 17.5641 46.9871C18.4674 47.7138 19.7877 48.0772 21.5248 48.0772H28.1955C40.5642 48.0772 46.7485 52.7608 46.7485 62.1279V69.5166C46.7485 72.3429 46.2968 74.8058 45.3935 76.9054C44.4901 79.0049 43.3089 80.6603 41.8497 81.8716C40.4599 83.0021 38.6533 83.8903 36.4297 84.5364C34.2756 85.1824 32.0173 85.6265 29.6548 85.8688C27.5007 86.111 24.9992 86.2321 22.1502 86.2321Z" fill="black"/>
<path d="M182.56 1.08005H197.777V85.8688H182.56V1.08005Z" fill="black"/>
<path d="M65.6835 87.0801C60.9585 87.0801 57.4146 86.5955 55.0521 85.6265C52.759 84.5768 51.1261 82.7599 50.1533 80.1758C49.25 77.511 48.7983 73.5542 48.7983 68.3054C48.7983 63.6218 49.2847 59.9477 50.2575 57.2829C51.2998 54.6181 52.9328 52.7204 55.1563 51.5899C57.4494 50.3787 60.5763 49.773 64.537 49.773H81.6306V45.7758C81.6306 43.2725 81.3179 41.4153 80.6926 40.204C80.1367 38.9927 79.0596 38.1448 77.4615 37.6603C75.9328 37.1758 73.605 36.9336 70.4781 36.9336C66.1699 36.9336 60.2636 37.4181 52.759 38.3871V27.2434C58.2485 26.4359 64.6759 26.0322 72.0415 26.0322C78.5038 26.0322 83.472 26.5974 86.9464 27.7279C90.4902 28.8585 93.0264 30.7965 94.5551 33.542C96.0838 36.2876 96.8482 40.2848 96.8482 45.5336V85.8688H81.9433V80.5392C80.762 82.881 79.1639 84.5364 77.1488 85.5054C75.1337 86.5552 71.3119 87.0801 65.6835 87.0801ZM71.6246 76.0575C74.682 76.0575 76.8708 75.9364 78.191 75.6941C79.1638 75.5326 79.824 75.2904 80.1714 74.9674C80.5883 74.6444 80.9358 74.1195 81.2137 73.3927C81.4917 72.8275 81.6306 71.9796 81.6306 70.8491V59.4632H71.2077C68.8451 59.4632 67.1775 59.665 66.2047 60.0688C65.2319 60.3918 64.5718 61.1186 64.2243 62.2491C63.8769 63.2988 63.7031 65.1965 63.7031 67.942C63.7031 70.6068 63.8769 72.4641 64.2243 73.5139C64.5718 74.5636 65.2319 75.25 66.2047 75.573C67.247 75.896 69.0536 76.0575 71.6246 76.0575Z" fill="black"/>
<path d="M251.919 1.08005H267.137V85.8688H251.919V1.08005ZM267.762 52.9223L284.334 27.2434H301.741L284.23 52.8012L303.2 85.8688H286.002L267.762 52.9223Z" fill="black"/>
<path d="M101.018 27.2434H116.235V34.3899C117.208 28.8181 122.176 26.0322 131.14 26.0322C135.865 26.0322 139.444 26.7589 141.876 28.2125C144.308 29.5852 145.941 31.7655 146.774 34.7533C147.608 31.6848 149.206 29.4641 151.569 28.0913C154.001 26.7185 157.649 26.0322 162.513 26.0322C166.891 26.0322 170.261 26.6378 172.623 27.8491C174.986 28.9796 176.619 30.7561 177.522 33.1786C178.495 35.6012 178.981 38.8312 178.981 42.8688V85.8688H163.764V45.2913C163.764 42.7073 163.625 40.8904 163.347 39.8406C163.069 38.7101 162.444 37.943 161.471 37.5392C160.567 37.1354 158.969 36.9336 156.676 36.9336C153.827 36.9336 151.777 37.1354 150.527 37.5392C149.345 37.943 148.546 38.7101 148.129 39.8406C147.782 40.8904 147.608 42.7073 147.608 45.2913V85.8688H132.391V45.2913C132.391 42.7073 132.252 40.8904 131.974 39.8406C131.696 38.7101 131.07 37.943 130.098 37.5392C129.194 37.1354 127.596 36.9336 125.303 36.9336C122.454 36.9336 120.404 37.1354 119.153 37.5392C117.972 37.943 117.173 38.7101 116.756 39.8406C116.409 40.8904 116.235 42.7073 116.235 45.2913V85.8688H101.018V27.2434Z" fill="black"/>
<path d="M217.141 86.9993C212.416 86.9993 208.872 86.5147 206.509 85.5457C204.216 84.496 202.583 82.6791 201.611 80.095C200.707 77.4302 200.256 73.4734 200.256 68.2246C200.256 63.541 200.742 59.8669 201.715 57.2021C202.757 54.5373 204.39 52.6396 206.614 51.5091C208.907 50.2979 212.034 49.6922 215.994 49.6922H233.088V45.695C233.088 43.1917 232.775 41.3345 232.15 40.1232C231.594 38.912 230.517 38.0641 228.919 37.5796C227.39 37.0951 225.062 36.8528 221.935 36.8528C217.627 36.8528 211.721 37.3373 204.216 38.3063V27.1627C209.706 26.3551 216.133 25.9514 223.499 25.9514C229.961 25.9514 234.929 26.5166 238.404 27.6472C241.948 28.7777 244.484 30.7157 246.013 33.4612C247.541 36.2068 248.306 40.204 248.306 45.4528V85.788H233.401V80.4584C232.219 82.8002 230.621 84.4556 228.606 85.4246C226.591 86.4744 222.769 86.9993 217.141 86.9993ZM223.082 75.9767C226.139 75.9767 228.328 75.8556 229.648 75.6133C230.621 75.4518 231.281 75.2096 231.629 74.8866C232.046 74.5636 232.393 74.0387 232.671 73.3119C232.949 72.7467 233.088 71.8988 233.088 70.7683V59.3824H222.665C220.303 59.3824 218.635 59.5842 217.662 59.988C216.689 60.311 216.029 61.0378 215.682 62.1683C215.334 63.218 215.16 65.1157 215.16 67.8612C215.16 70.526 215.334 72.3833 215.682 73.4331C216.029 74.4828 216.689 75.1692 217.662 75.4922C218.704 75.8152 220.511 75.9767 223.082 75.9767Z" fill="black"/>
<path d="M22.1502 86.2321C16.7303 86.2321 10.0943 85.6265 2.24231 84.4152V72.6659C11.9009 74.3617 18.6064 75.2096 22.3587 75.2096C25.5551 75.2096 27.9176 74.8462 29.4463 74.1194C30.975 73.3927 31.7394 72.0603 31.7394 70.1223V66.4885C31.7394 64.4697 31.253 63.0566 30.2801 62.2491C29.3073 61.3608 27.3964 60.9167 24.5475 60.9167H17.981C12.6306 60.9167 8.4961 59.7054 5.57767 57.2828C2.65923 54.7796 1.20001 51.1458 1.20001 46.3814V39.235C1.20001 34.1476 3.28461 30.5542 7.4538 28.4547C11.623 26.2744 17.9115 25.1843 26.3194 25.1843C29.6548 25.1843 35.6306 25.5476 44.2469 26.2744V37.5392C33.407 36.5702 27.2922 36.0857 25.9025 36.0857C21.8028 36.0857 19.1275 36.4087 17.8768 37.0547C16.765 37.7814 16.2091 39.1138 16.2091 41.0519V44.2012C16.2091 45.2509 16.6608 46.1795 17.5641 46.9871C18.4674 47.7138 19.7877 48.0772 21.5248 48.0772H28.1955C40.5642 48.0772 46.7485 52.7608 46.7485 62.1279V69.5166C46.7485 72.3429 46.2968 74.8058 45.3935 76.9054C44.4901 79.0049 43.3089 80.6603 41.8497 81.8716C40.4599 83.0021 38.6533 83.8903 36.4297 84.5364C34.2756 85.1824 32.0173 85.6265 29.6548 85.8688C27.5007 86.111 24.9992 86.2321 22.1502 86.2321Z" stroke="#09F755" stroke-width="2"/>
<path d="M182.56 1.08005H197.777V85.8688H182.56V1.08005Z" stroke="#09F755" stroke-width="2"/>
<path d="M65.6835 87.0801C60.9585 87.0801 57.4146 86.5955 55.0521 85.6265C52.759 84.5768 51.1261 82.7599 50.1533 80.1758C49.25 77.511 48.7983 73.5542 48.7983 68.3054C48.7983 63.6218 49.2847 59.9477 50.2575 57.2829C51.2998 54.6181 52.9328 52.7204 55.1563 51.5899C57.4494 50.3787 60.5763 49.773 64.537 49.773H81.6306V45.7758C81.6306 43.2725 81.3179 41.4153 80.6926 40.204C80.1367 38.9927 79.0596 38.1448 77.4615 37.6603C75.9328 37.1758 73.605 36.9336 70.4781 36.9336C66.1699 36.9336 60.2636 37.4181 52.759 38.3871V27.2434C58.2485 26.4359 64.6759 26.0322 72.0415 26.0322C78.5038 26.0322 83.472 26.5974 86.9464 27.7279C90.4902 28.8585 93.0264 30.7965 94.5551 33.542C96.0838 36.2876 96.8482 40.2848 96.8482 45.5336V85.8688H81.9433V80.5392C80.762 82.881 79.1639 84.5364 77.1488 85.5054C75.1337 86.5552 71.3119 87.0801 65.6835 87.0801ZM71.6246 76.0575C74.682 76.0575 76.8708 75.9364 78.191 75.6941C79.1638 75.5326 79.824 75.2904 80.1714 74.9674C80.5883 74.6444 80.9358 74.1195 81.2137 73.3927C81.4917 72.8275 81.6306 71.9796 81.6306 70.8491V59.4632H71.2077C68.8451 59.4632 67.1775 59.665 66.2047 60.0688C65.2319 60.3918 64.5718 61.1186 64.2243 62.2491C63.8769 63.2988 63.7031 65.1965 63.7031 67.942C63.7031 70.6068 63.8769 72.4641 64.2243 73.5139C64.5718 74.5636 65.2319 75.25 66.2047 75.573C67.247 75.896 69.0536 76.0575 71.6246 76.0575Z" stroke="#09F755" stroke-width="2"/>
<path d="M251.919 1.08005H267.137V85.8688H251.919V1.08005ZM267.762 52.9223L284.334 27.2434H301.741L284.23 52.8012L303.2 85.8688H286.002L267.762 52.9223Z" stroke="#09F755" stroke-width="2"/>
<path d="M101.018 27.2434H116.235V34.3899C117.208 28.8181 122.176 26.0322 131.14 26.0322C135.865 26.0322 139.444 26.7589 141.876 28.2125C144.308 29.5852 145.941 31.7655 146.774 34.7533C147.608 31.6848 149.206 29.4641 151.569 28.0913C154.001 26.7185 157.649 26.0322 162.513 26.0322C166.891 26.0322 170.261 26.6378 172.623 27.8491C174.986 28.9796 176.619 30.7561 177.522 33.1786C178.495 35.6012 178.981 38.8312 178.981 42.8688V85.8688H163.764V45.2913C163.764 42.7073 163.625 40.8904 163.347 39.8406C163.069 38.7101 162.444 37.943 161.471 37.5392C160.567 37.1354 158.969 36.9336 156.676 36.9336C153.827 36.9336 151.777 37.1354 150.527 37.5392C149.345 37.943 148.546 38.7101 148.129 39.8406C147.782 40.8904 147.608 42.7073 147.608 45.2913V85.8688H132.391V45.2913C132.391 42.7073 132.252 40.8904 131.974 39.8406C131.696 38.7101 131.07 37.943 130.098 37.5392C129.194 37.1354 127.596 36.9336 125.303 36.9336C122.454 36.9336 120.404 37.1354 119.153 37.5392C117.972 37.943 117.173 38.7101 116.756 39.8406C116.409 40.8904 116.235 42.7073 116.235 45.2913V85.8688H101.018V27.2434Z" stroke="#09F755" stroke-width="2"/>
<path d="M217.141 86.9993C212.416 86.9993 208.872 86.5147 206.509 85.5457C204.216 84.496 202.583 82.6791 201.611 80.095C200.707 77.4302 200.256 73.4734 200.256 68.2246C200.256 63.541 200.742 59.8669 201.715 57.2021C202.757 54.5373 204.39 52.6396 206.614 51.5091C208.907 50.2979 212.034 49.6922 215.994 49.6922H233.088V45.695C233.088 43.1917 232.775 41.3345 232.15 40.1232C231.594 38.912 230.517 38.0641 228.919 37.5796C227.39 37.0951 225.062 36.8528 221.935 36.8528C217.627 36.8528 211.721 37.3373 204.216 38.3063V27.1627C209.706 26.3551 216.133 25.9514 223.499 25.9514C229.961 25.9514 234.929 26.5166 238.404 27.6472C241.948 28.7777 244.484 30.7157 246.013 33.4612C247.541 36.2068 248.306 40.204 248.306 45.4528V85.788H233.401V80.4584C232.219 82.8002 230.621 84.4556 228.606 85.4246C226.591 86.4744 222.769 86.9993 217.141 86.9993ZM223.082 75.9767C226.139 75.9767 228.328 75.8556 229.648 75.6133C230.621 75.4518 231.281 75.2096 231.629 74.8866C232.046 74.5636 232.393 74.0387 232.671 73.3119C232.949 72.7467 233.088 71.8988 233.088 70.7683V59.3824H222.665C220.303 59.3824 218.635 59.5842 217.662 59.988C216.689 60.311 216.029 61.0378 215.682 62.1683C215.334 63.218 215.16 65.1157 215.16 67.8612C215.16 70.526 215.334 72.3833 215.682 73.4331C216.029 74.4828 216.689 75.1692 217.662 75.4922C218.704 75.8152 220.511 75.9767 223.082 75.9767Z" stroke="#09F755" stroke-width="2"/>
</svg>
