<svg width="37" height="30" viewBox="0 0 37 30" fill="none" xmlns="http://www.w3.org/2000/svg">
<path d="M5.03717 14.2525C3.99273 14.2525 2.71396 14.121 1.20085 13.8581V11.3075C3.0621 11.6756 4.35427 11.8597 5.07734 11.8597C5.69329 11.8597 6.14856 11.7808 6.44315 11.623C6.73774 11.4652 6.88503 11.176 6.88503 10.7553V9.96645C6.88503 9.52821 6.7913 9.22144 6.60383 9.04614C6.41637 8.85332 6.04814 8.7569 5.49913 8.7569H4.23375C3.2027 8.7569 2.40598 8.49395 1.84359 7.96806C1.2812 7.42464 1 6.63581 1 5.60155V4.05017C1 2.9458 1.40171 2.16573 2.20513 1.70995C3.00854 1.23665 4.22036 1 5.84059 1C6.48332 1 7.63488 1.07888 9.29528 1.23665V3.68205C7.2064 3.47169 6.02805 3.36651 5.76025 3.36651C4.97022 3.36651 4.45469 3.43663 4.21367 3.57687C3.99942 3.73463 3.8923 4.02388 3.8923 4.44459V5.12825C3.8923 5.35614 3.97934 5.55772 4.15341 5.73302C4.32748 5.89079 4.5819 5.96968 4.91666 5.96968H6.20212C8.58559 5.96968 9.77733 6.9864 9.77733 9.01984V10.6238C9.77733 11.2374 9.69029 11.772 9.51622 12.2278C9.34214 12.6836 9.11451 13.0429 8.83331 13.3059C8.56551 13.5513 8.21736 13.7441 7.78887 13.8843C7.37377 14.0246 6.93859 14.121 6.48332 14.1736C6.06822 14.2262 5.58617 14.2525 5.03717 14.2525Z" fill="white"/>
<path d="M13.1892 15.5699L16.1217 15.5699V19.7858V28.9889H13.1892V15.5699Z" fill="white"/>
<path d="M13.4262 14.4365C12.5156 14.4365 11.8327 14.3314 11.3775 14.121C10.9356 13.8931 10.6209 13.4987 10.4334 12.9377C10.2594 12.3593 10.1723 11.5003 10.1723 10.3609C10.1723 9.34416 10.2661 8.54655 10.4535 7.96807C10.6544 7.38959 10.9691 6.97764 11.3976 6.73222C11.8394 6.46928 12.442 6.33781 13.2052 6.33781H16.4992V5.47008C16.4992 4.92666 16.439 4.52348 16.3185 4.26053C16.2113 3.99759 16.0038 3.81353 15.6958 3.70835C15.4012 3.60317 14.9527 3.55058 14.3501 3.55058C13.5199 3.55058 12.3817 3.65576 10.9356 3.86612V1.44701C11.9934 1.27172 13.232 1.18407 14.6514 1.18407C15.8967 1.18407 16.8541 1.30677 17.5236 1.55219C18.2065 1.79761 18.6952 2.21832 18.9898 2.81433C19.2844 3.41034 19.4317 4.27806 19.4317 5.4175V14.1736H16.5595V13.0166C16.3319 13.525 16.0239 13.8844 15.6356 14.0947C15.2472 14.3226 14.5108 14.4365 13.4262 14.4365ZM14.571 12.0437C15.1602 12.0437 15.582 12.0174 15.8364 11.9649C16.0239 11.9298 16.1511 11.8772 16.218 11.8071C16.2984 11.737 16.3653 11.623 16.4189 11.4653C16.4725 11.3425 16.4992 11.1585 16.4992 10.9131V8.44137H14.4907C14.0354 8.44137 13.7141 8.48519 13.5266 8.57284C13.3391 8.64296 13.2119 8.80073 13.145 9.04615C13.078 9.27403 13.0446 9.68599 13.0446 10.282C13.0446 10.8605 13.078 11.2637 13.145 11.4915C13.2119 11.7194 13.3391 11.8684 13.5266 11.9386C13.7275 12.0087 14.0756 12.0437 14.571 12.0437Z" fill="white"/>
<path d="M26.118 15.8264L29.0504 15.8264V29H26.118V15.8264ZM29.171 21.8479L32.3645 16.2734H35.7188L32.3445 21.8216L36 29H32.6859L29.171 21.8479Z" fill="white"/>
<path d="M20.2351 1.44701H23.1676V2.99839C23.3551 1.78884 24.3125 1.18407 26.0398 1.18407C26.9504 1.18407 27.64 1.34184 28.1086 1.65737C28.5773 1.95538 28.892 2.42868 29.0526 3.07728C29.2133 2.41115 29.5213 1.92908 29.9766 1.63107C30.4452 1.33307 31.1482 1.18407 32.0855 1.18407C32.9291 1.18407 33.5786 1.31554 34.0338 1.57849C34.4891 1.8239 34.8038 2.20956 34.9778 2.73545C35.1653 3.26134 35.259 3.96253 35.259 4.83901V14.1736H32.3266V5.36491C32.3266 4.80395 32.2998 4.40953 32.2462 4.18165C32.1927 3.93623 32.0721 3.7697 31.8847 3.68205C31.7106 3.5944 31.4026 3.55058 30.9608 3.55058C30.4118 3.55058 30.0167 3.5944 29.7757 3.68205C29.5481 3.7697 29.3941 3.93623 29.3137 4.18165C29.2468 4.40953 29.2133 4.80395 29.2133 5.36491V14.1736H26.2809V5.36491C26.2809 4.80395 26.2541 4.40953 26.2005 4.18165C26.1469 3.93623 26.0264 3.7697 25.839 3.68205C25.6649 3.5944 25.3569 3.55058 24.915 3.55058C24.366 3.55058 23.971 3.5944 23.73 3.68205C23.5024 3.7697 23.3484 3.93623 23.268 4.18165C23.2011 4.40953 23.1676 4.80395 23.1676 5.36491V14.1736H20.2351V1.44701Z" fill="white"/>
<path d="M19.7951 29C18.8846 29 18.2017 28.8948 17.7464 28.6845C17.3045 28.4566 16.9899 28.0622 16.8024 27.5012C16.6283 26.9227 16.5413 26.0638 16.5413 24.9243C16.5413 23.9076 16.635 23.11 16.8225 22.5315C17.0233 21.9531 17.338 21.5411 17.7665 21.2957C18.2084 21.0327 18.8109 20.9013 19.5742 20.9013H22.8682V20.0335C22.8682 19.4901 22.8079 19.0869 22.6874 18.824C22.5803 18.5611 22.3728 18.377 22.0648 18.2718C21.7702 18.1666 21.3216 18.114 20.7191 18.114C19.8889 18.114 18.7507 18.2192 17.3045 18.4296V16.0105C18.3624 15.8352 19.601 15.7475 21.0203 15.7475C22.2656 15.7475 23.223 15.8702 23.8926 16.1157C24.5755 16.3611 25.0642 16.7818 25.3588 17.3778C25.6534 17.9738 25.8007 18.8415 25.8007 19.981V28.7371H22.9285V27.5801C22.7008 28.0885 22.3929 28.4478 22.0045 28.6582C21.6162 28.8861 20.8797 29 19.7951 29ZM20.94 26.6072C21.5292 26.6072 21.951 26.5809 22.2054 26.5283C22.3928 26.4933 22.5201 26.4407 22.587 26.3705C22.6674 26.3004 22.7343 26.1865 22.7879 26.0287C22.8414 25.906 22.8682 25.7219 22.8682 25.4765V23.0048H20.8597C20.4044 23.0048 20.083 23.0487 19.8956 23.1363C19.7081 23.2064 19.5809 23.3642 19.5139 23.6096C19.447 23.8375 19.4135 24.2494 19.4135 24.8455C19.4135 25.4239 19.447 25.8271 19.5139 26.055C19.5809 26.2829 19.7081 26.4319 19.8956 26.502C20.0964 26.5721 20.4446 26.6072 20.94 26.6072Z" fill="white"/>
<path d="M5.03717 14.2525C3.99273 14.2525 2.71396 14.121 1.20085 13.8581V11.3075C3.0621 11.6756 4.35427 11.8597 5.07734 11.8597C5.69329 11.8597 6.14856 11.7808 6.44315 11.623C6.73774 11.4652 6.88503 11.176 6.88503 10.7553V9.96645C6.88503 9.52821 6.7913 9.22144 6.60383 9.04614C6.41637 8.85332 6.04814 8.7569 5.49913 8.7569H4.23375C3.2027 8.7569 2.40598 8.49395 1.84359 7.96806C1.2812 7.42464 1 6.63581 1 5.60155V4.05017C1 2.9458 1.40171 2.16573 2.20513 1.70995C3.00854 1.23665 4.22036 1 5.84059 1C6.48332 1 7.63488 1.07888 9.29528 1.23665V3.68205C7.2064 3.47169 6.02805 3.36651 5.76025 3.36651C4.97022 3.36651 4.45469 3.43663 4.21367 3.57687C3.99942 3.73463 3.8923 4.02388 3.8923 4.44459V5.12825C3.8923 5.35614 3.97934 5.55772 4.15341 5.73302C4.32748 5.89079 4.5819 5.96968 4.91666 5.96968H6.20212C8.58559 5.96968 9.77733 6.9864 9.77733 9.01984V10.6238C9.77733 11.2374 9.69029 11.772 9.51622 12.2278C9.34214 12.6836 9.11451 13.0429 8.83331 13.3059C8.56551 13.5513 8.21736 13.7441 7.78887 13.8843C7.37377 14.0246 6.93859 14.121 6.48332 14.1736C6.06822 14.2262 5.58617 14.2525 5.03717 14.2525Z" stroke="white"/>
<path d="M13.1892 15.5699L16.1217 15.5699V19.7858V28.9889H13.1892V15.5699Z" stroke="white"/>
<path d="M13.4262 14.4365C12.5156 14.4365 11.8327 14.3314 11.3775 14.121C10.9356 13.8931 10.6209 13.4987 10.4334 12.9377C10.2594 12.3593 10.1723 11.5003 10.1723 10.3609C10.1723 9.34416 10.2661 8.54655 10.4535 7.96807C10.6544 7.38959 10.9691 6.97764 11.3976 6.73222C11.8394 6.46928 12.442 6.33781 13.2052 6.33781H16.4992V5.47008C16.4992 4.92666 16.439 4.52348 16.3185 4.26053C16.2113 3.99759 16.0038 3.81353 15.6958 3.70835C15.4012 3.60317 14.9527 3.55058 14.3501 3.55058C13.5199 3.55058 12.3817 3.65576 10.9356 3.86612V1.44701C11.9934 1.27172 13.232 1.18407 14.6514 1.18407C15.8967 1.18407 16.8541 1.30677 17.5236 1.55219C18.2065 1.79761 18.6952 2.21832 18.9898 2.81433C19.2844 3.41034 19.4317 4.27806 19.4317 5.4175V14.1736H16.5595V13.0166C16.3319 13.525 16.0239 13.8844 15.6356 14.0947C15.2472 14.3226 14.5108 14.4365 13.4262 14.4365ZM14.571 12.0437C15.1602 12.0437 15.582 12.0174 15.8364 11.9649C16.0239 11.9298 16.1511 11.8772 16.218 11.8071C16.2984 11.737 16.3653 11.623 16.4189 11.4653C16.4725 11.3425 16.4992 11.1585 16.4992 10.9131V8.44137H14.4907C14.0354 8.44137 13.7141 8.48519 13.5266 8.57284C13.3391 8.64296 13.2119 8.80073 13.145 9.04615C13.078 9.27403 13.0446 9.68599 13.0446 10.282C13.0446 10.8605 13.078 11.2637 13.145 11.4915C13.2119 11.7194 13.3391 11.8684 13.5266 11.9386C13.7275 12.0087 14.0756 12.0437 14.571 12.0437Z" stroke="white"/>
<path d="M26.118 15.8264L29.0504 15.8264V29H26.118V15.8264ZM29.171 21.8479L32.3645 16.2734H35.7188L32.3445 21.8216L36 29H32.6859L29.171 21.8479Z" stroke="white"/>
<path d="M20.2351 1.44701H23.1676V2.99839C23.3551 1.78884 24.3125 1.18407 26.0398 1.18407C26.9504 1.18407 27.64 1.34184 28.1086 1.65737C28.5773 1.95538 28.892 2.42868 29.0526 3.07728C29.2133 2.41115 29.5213 1.92908 29.9766 1.63107C30.4452 1.33307 31.1482 1.18407 32.0855 1.18407C32.9291 1.18407 33.5786 1.31554 34.0338 1.57849C34.4891 1.8239 34.8038 2.20956 34.9778 2.73545C35.1653 3.26134 35.259 3.96253 35.259 4.83901V14.1736H32.3266V5.36491C32.3266 4.80395 32.2998 4.40953 32.2462 4.18165C32.1927 3.93623 32.0721 3.7697 31.8847 3.68205C31.7106 3.5944 31.4026 3.55058 30.9608 3.55058C30.4118 3.55058 30.0167 3.5944 29.7757 3.68205C29.5481 3.7697 29.3941 3.93623 29.3137 4.18165C29.2468 4.40953 29.2133 4.80395 29.2133 5.36491V14.1736H26.2809V5.36491C26.2809 4.80395 26.2541 4.40953 26.2005 4.18165C26.1469 3.93623 26.0264 3.7697 25.839 3.68205C25.6649 3.5944 25.3569 3.55058 24.915 3.55058C24.366 3.55058 23.971 3.5944 23.73 3.68205C23.5024 3.7697 23.3484 3.93623 23.268 4.18165C23.2011 4.40953 23.1676 4.80395 23.1676 5.36491V14.1736H20.2351V1.44701Z" stroke="white"/>
<path d="M19.7951 29C18.8846 29 18.2017 28.8948 17.7464 28.6845C17.3045 28.4566 16.9899 28.0622 16.8024 27.5012C16.6283 26.9227 16.5413 26.0638 16.5413 24.9243C16.5413 23.9076 16.635 23.11 16.8225 22.5315C17.0233 21.9531 17.338 21.5411 17.7665 21.2957C18.2084 21.0327 18.8109 20.9013 19.5742 20.9013H22.8682V20.0335C22.8682 19.4901 22.8079 19.0869 22.6874 18.824C22.5803 18.5611 22.3728 18.377 22.0648 18.2718C21.7702 18.1666 21.3216 18.114 20.7191 18.114C19.8889 18.114 18.7507 18.2192 17.3045 18.4296V16.0105C18.3624 15.8352 19.601 15.7475 21.0203 15.7475C22.2656 15.7475 23.223 15.8702 23.8926 16.1157C24.5755 16.3611 25.0642 16.7818 25.3588 17.3778C25.6534 17.9738 25.8007 18.8415 25.8007 19.981V28.7371H22.9285V27.5801C22.7008 28.0885 22.3929 28.4478 22.0045 28.6582C21.6162 28.8861 20.8797 29 19.7951 29ZM20.94 26.6072C21.5292 26.6072 21.951 26.5809 22.2054 26.5283C22.3928 26.4933 22.5201 26.4407 22.587 26.3705C22.6674 26.3004 22.7343 26.1865 22.7879 26.0287C22.8414 25.906 22.8682 25.7219 22.8682 25.4765V23.0048H20.8597C20.4044 23.0048 20.083 23.0487 19.8956 23.1363C19.7081 23.2064 19.5809 23.3642 19.5139 23.6096C19.447 23.8375 19.4135 24.2494 19.4135 24.8455C19.4135 25.4239 19.447 25.8271 19.5139 26.055C19.5809 26.2829 19.7081 26.4319 19.8956 26.502C20.0964 26.5721 20.4446 26.6072 20.94 26.6072Z" stroke="white"/>
</svg>
