<svg width="467" height="198" viewBox="0 0 467 198" fill="none" xmlns="http://www.w3.org/2000/svg">
<rect width="467" height="198" fill="black"/>
<mask id="path-1-outside-1" maskUnits="userSpaceOnUse" x="66.592" y="48.6749" width="354" height="101" fill="black">
<rect fill="white" x="66.592" y="48.6749" width="354" height="101"/>
<path d="M102.665 128.101C102.665 125.86 101.698 124.106 99.765 122.838C97.8682 121.528 94.8041 120.366 90.5727 119.351C76.4925 115.928 69.4524 108.996 69.4524 98.5562C69.4524 92.4698 71.6228 87.3978 75.9636 83.3402C80.3408 79.2404 86.0495 77.1905 93.0896 77.1905C100.604 77.1905 106.604 79.2404 111.091 83.3402C115.614 87.4401 117.876 92.7657 117.876 99.317H102.063C102.063 96.6965 101.334 94.5409 99.8744 92.8502C98.4153 91.1173 96.1355 90.2508 93.0349 90.2508C90.3721 90.2508 88.3111 90.9482 86.852 92.343C85.3929 93.7378 84.6634 95.513 84.6634 97.6686C84.6634 99.6974 85.4841 101.346 87.1256 102.614C88.8036 103.84 91.6123 104.917 95.5519 105.847C99.4914 106.735 102.811 107.749 105.51 108.89C113.863 112.441 118.04 118.591 118.04 127.34C118.04 133.595 115.724 138.667 111.091 142.556C106.459 146.402 100.476 148.325 93.1444 148.325C88.1835 148.325 83.7697 147.311 79.9031 145.282C76.073 143.211 73.0636 140.4 70.875 136.85C68.6864 133.257 67.592 129.39 67.592 125.248H82.5842C82.7301 128.502 83.7697 130.996 85.703 132.729C87.6363 134.462 90.2262 135.328 93.4727 135.328C96.5003 135.328 98.7801 134.673 100.312 133.363C101.881 132.01 102.665 130.256 102.665 128.101Z"/>
<path fill-rule="evenodd" clip-rule="evenodd" d="M159.315 147.057C158.585 145.409 158.056 143.359 157.728 140.907C153.898 145.853 148.919 148.325 142.791 148.325C136.991 148.325 132.176 146.381 128.346 142.492C124.552 138.604 122.655 133.701 122.655 127.784C122.655 120.514 124.971 114.935 129.604 111.046C134.273 107.157 141.003 105.192 149.794 105.15H157.071V101.219C157.071 98.049 156.36 95.513 154.938 93.611C153.551 91.709 151.345 90.758 148.317 90.758C145.654 90.758 143.557 91.4977 142.025 92.977C140.529 94.4564 139.781 96.4852 139.781 99.0634H123.968C123.968 95.0904 125.026 91.4132 127.142 88.0318C129.258 84.6505 132.249 82.0089 136.115 80.1069C139.982 78.1626 144.323 77.1905 149.138 77.1905C156.433 77.1905 162.215 79.3249 166.483 83.5939C170.787 87.8205 172.939 93.7801 172.939 101.473V131.207C172.976 137.716 173.76 142.64 175.292 145.979V147.057H159.315ZM152.694 132.539C150.724 133.722 148.572 134.314 146.238 134.314C143.83 134.314 141.933 133.574 140.547 132.095C139.161 130.615 138.468 128.735 138.468 126.452L138.523 125.374C139.033 119.034 143.247 115.864 151.162 115.864H157.071V127.657C156.123 129.686 154.664 131.313 152.694 132.539Z"/>
<path d="M191.935 78.4585L192.428 86.1298C196.623 80.1703 202.295 77.1905 209.444 77.1905C217.068 77.1905 222.303 80.6775 225.148 87.6514C229.306 80.6775 235.234 77.1905 242.931 77.1905C249.351 77.1905 254.129 79.3672 257.266 83.7206C260.403 88.0318 261.972 94.5409 261.972 103.248V147.057H246.104V103.311C246.104 99.4227 245.447 96.5908 244.134 94.8156C242.821 92.9982 240.505 92.0894 237.185 92.0894C232.443 92.0894 229.16 94.71 227.337 99.951L227.391 147.057H211.578V103.375C211.578 99.4016 210.904 96.5274 209.554 94.7522C208.204 92.977 205.906 92.0894 202.66 92.0894C198.173 92.0894 194.926 94.245 192.92 98.5562V147.057H177.107V78.4585H191.935Z"/>
<path d="M281.795 147.057H265.927V49.6749H281.795V147.057Z"/>
<path fill-rule="evenodd" clip-rule="evenodd" d="M323.014 147.057C322.284 145.409 321.755 143.359 321.427 140.907C317.597 145.853 312.618 148.325 306.489 148.325C300.69 148.325 295.875 146.381 292.044 142.492C288.251 138.604 286.354 133.701 286.354 127.784C286.354 120.514 288.67 114.935 293.303 111.046C297.972 107.157 304.702 105.192 313.493 105.15H320.77V101.219C320.77 98.049 320.059 95.513 318.636 93.611C317.25 91.709 315.043 90.758 312.016 90.758C309.353 90.758 307.255 91.4977 305.723 92.977C304.228 94.4564 303.48 96.4852 303.48 99.0634H287.667C287.667 95.0904 288.725 91.4132 290.841 88.0318C292.956 84.6505 295.948 82.0089 299.814 80.1069C303.681 78.1626 308.022 77.1905 312.837 77.1905C320.132 77.1905 325.914 79.3249 330.181 83.5939C334.486 87.8205 336.638 93.7801 336.638 101.473V131.207C336.674 137.716 337.459 142.64 338.991 145.979V147.057H323.014ZM316.393 132.539C314.423 133.722 312.271 134.314 309.937 134.314C307.529 134.314 305.632 133.574 304.246 132.095C302.86 130.615 302.167 128.735 302.167 126.452L302.222 125.374C302.732 119.034 306.945 115.864 314.861 115.864H320.77V127.657C319.822 129.686 318.363 131.313 316.393 132.539Z"/>
<path d="M362.31 119.542L356.619 126.135V147.057H340.806V49.6749H356.619V103.628L359.683 99.0634L374.839 78.4585H393.826L372.432 107.052L395.686 147.057H377.521L362.31 119.542Z"/>
<path d="M401.486 138.054C401.486 135.138 402.325 132.771 404.003 130.954C405.717 129.136 407.851 128.227 410.405 128.227C412.995 128.227 415.129 129.136 416.807 130.954C418.521 132.771 419.378 135.138 419.378 138.054C419.378 140.928 418.539 143.274 416.861 145.092C415.183 146.867 413.031 147.755 410.405 147.755C407.815 147.755 405.681 146.867 404.003 145.092C402.325 143.274 401.486 140.928 401.486 138.054Z"/>
</mask>
<path d="M102.665 128.101C102.665 125.86 101.698 124.106 99.765 122.838C97.8682 121.528 94.8041 120.366 90.5727 119.351C76.4925 115.928 69.4524 108.996 69.4524 98.5562C69.4524 92.4698 71.6228 87.3978 75.9636 83.3402C80.3408 79.2404 86.0495 77.1905 93.0896 77.1905C100.604 77.1905 106.604 79.2404 111.091 83.3402C115.614 87.4401 117.876 92.7657 117.876 99.317H102.063C102.063 96.6965 101.334 94.5409 99.8744 92.8502C98.4153 91.1173 96.1355 90.2508 93.0349 90.2508C90.3721 90.2508 88.3111 90.9482 86.852 92.343C85.3929 93.7378 84.6634 95.513 84.6634 97.6686C84.6634 99.6974 85.4841 101.346 87.1256 102.614C88.8036 103.84 91.6123 104.917 95.5519 105.847C99.4914 106.735 102.811 107.749 105.51 108.89C113.863 112.441 118.04 118.591 118.04 127.34C118.04 133.595 115.724 138.667 111.091 142.556C106.459 146.402 100.476 148.325 93.1444 148.325C88.1835 148.325 83.7697 147.311 79.9031 145.282C76.073 143.211 73.0636 140.4 70.875 136.85C68.6864 133.257 67.592 129.39 67.592 125.248H82.5842C82.7301 128.502 83.7697 130.996 85.703 132.729C87.6363 134.462 90.2262 135.328 93.4727 135.328C96.5003 135.328 98.7801 134.673 100.312 133.363C101.881 132.01 102.665 130.256 102.665 128.101Z" fill="#FFF7F7"/>
<path fill-rule="evenodd" clip-rule="evenodd" d="M159.315 147.057C158.585 145.409 158.056 143.359 157.728 140.907C153.898 145.853 148.919 148.325 142.791 148.325C136.991 148.325 132.176 146.381 128.346 142.492C124.552 138.604 122.655 133.701 122.655 127.784C122.655 120.514 124.971 114.935 129.604 111.046C134.273 107.157 141.003 105.192 149.794 105.15H157.071V101.219C157.071 98.049 156.36 95.513 154.938 93.611C153.551 91.709 151.345 90.758 148.317 90.758C145.654 90.758 143.557 91.4977 142.025 92.977C140.529 94.4564 139.781 96.4852 139.781 99.0634H123.968C123.968 95.0904 125.026 91.4132 127.142 88.0318C129.258 84.6505 132.249 82.0089 136.115 80.1069C139.982 78.1626 144.323 77.1905 149.138 77.1905C156.433 77.1905 162.215 79.3249 166.483 83.5939C170.787 87.8205 172.939 93.7801 172.939 101.473V131.207C172.976 137.716 173.76 142.64 175.292 145.979V147.057H159.315ZM152.694 132.539C150.724 133.722 148.572 134.314 146.238 134.314C143.83 134.314 141.933 133.574 140.547 132.095C139.161 130.615 138.468 128.735 138.468 126.452L138.523 125.374C139.033 119.034 143.247 115.864 151.162 115.864H157.071V127.657C156.123 129.686 154.664 131.313 152.694 132.539Z" fill="#FFF7F7"/>
<path d="M191.935 78.4585L192.428 86.1298C196.623 80.1703 202.295 77.1905 209.444 77.1905C217.068 77.1905 222.303 80.6775 225.148 87.6514C229.306 80.6775 235.234 77.1905 242.931 77.1905C249.351 77.1905 254.129 79.3672 257.266 83.7206C260.403 88.0318 261.972 94.5409 261.972 103.248V147.057H246.104V103.311C246.104 99.4227 245.447 96.5908 244.134 94.8156C242.821 92.9982 240.505 92.0894 237.185 92.0894C232.443 92.0894 229.16 94.71 227.337 99.951L227.391 147.057H211.578V103.375C211.578 99.4016 210.904 96.5274 209.554 94.7522C208.204 92.977 205.906 92.0894 202.66 92.0894C198.173 92.0894 194.926 94.245 192.92 98.5562V147.057H177.107V78.4585H191.935Z" fill="#FFF7F7"/>
<path d="M281.795 147.057H265.927V49.6749H281.795V147.057Z" fill="#FFF7F7"/>
<path fill-rule="evenodd" clip-rule="evenodd" d="M323.014 147.057C322.284 145.409 321.755 143.359 321.427 140.907C317.597 145.853 312.618 148.325 306.489 148.325C300.69 148.325 295.875 146.381 292.044 142.492C288.251 138.604 286.354 133.701 286.354 127.784C286.354 120.514 288.67 114.935 293.303 111.046C297.972 107.157 304.702 105.192 313.493 105.15H320.77V101.219C320.77 98.049 320.059 95.513 318.636 93.611C317.25 91.709 315.043 90.758 312.016 90.758C309.353 90.758 307.255 91.4977 305.723 92.977C304.228 94.4564 303.48 96.4852 303.48 99.0634H287.667C287.667 95.0904 288.725 91.4132 290.841 88.0318C292.956 84.6505 295.948 82.0089 299.814 80.1069C303.681 78.1626 308.022 77.1905 312.837 77.1905C320.132 77.1905 325.914 79.3249 330.181 83.5939C334.486 87.8205 336.638 93.7801 336.638 101.473V131.207C336.674 137.716 337.459 142.64 338.991 145.979V147.057H323.014ZM316.393 132.539C314.423 133.722 312.271 134.314 309.937 134.314C307.529 134.314 305.632 133.574 304.246 132.095C302.86 130.615 302.167 128.735 302.167 126.452L302.222 125.374C302.732 119.034 306.945 115.864 314.861 115.864H320.77V127.657C319.822 129.686 318.363 131.313 316.393 132.539Z" fill="#FFF7F7"/>
<path d="M362.31 119.542L356.619 126.135V147.057H340.806V49.6749H356.619V103.628L359.683 99.0634L374.839 78.4585H393.826L372.432 107.052L395.686 147.057H377.521L362.31 119.542Z" fill="#FFF7F7"/>
<path d="M401.486 138.054C401.486 135.138 402.325 132.771 404.003 130.954C405.717 129.136 407.851 128.227 410.405 128.227C412.995 128.227 415.129 129.136 416.807 130.954C418.521 132.771 419.378 135.138 419.378 138.054C419.378 140.928 418.539 143.274 416.861 145.092C415.183 146.867 413.031 147.755 410.405 147.755C407.815 147.755 405.681 146.867 404.003 145.092C402.325 143.274 401.486 140.928 401.486 138.054Z" fill="#FFF7F7"/>
<path d="M102.665 128.101C102.665 125.86 101.698 124.106 99.765 122.838C97.8682 121.528 94.8041 120.366 90.5727 119.351C76.4925 115.928 69.4524 108.996 69.4524 98.5562C69.4524 92.4698 71.6228 87.3978 75.9636 83.3402C80.3408 79.2404 86.0495 77.1905 93.0896 77.1905C100.604 77.1905 106.604 79.2404 111.091 83.3402C115.614 87.4401 117.876 92.7657 117.876 99.317H102.063C102.063 96.6965 101.334 94.5409 99.8744 92.8502C98.4153 91.1173 96.1355 90.2508 93.0349 90.2508C90.3721 90.2508 88.3111 90.9482 86.852 92.343C85.3929 93.7378 84.6634 95.513 84.6634 97.6686C84.6634 99.6974 85.4841 101.346 87.1256 102.614C88.8036 103.84 91.6123 104.917 95.5519 105.847C99.4914 106.735 102.811 107.749 105.51 108.89C113.863 112.441 118.04 118.591 118.04 127.34C118.04 133.595 115.724 138.667 111.091 142.556C106.459 146.402 100.476 148.325 93.1444 148.325C88.1835 148.325 83.7697 147.311 79.9031 145.282C76.073 143.211 73.0636 140.4 70.875 136.85C68.6864 133.257 67.592 129.39 67.592 125.248H82.5842C82.7301 128.502 83.7697 130.996 85.703 132.729C87.6363 134.462 90.2262 135.328 93.4727 135.328C96.5003 135.328 98.7801 134.673 100.312 133.363C101.881 132.01 102.665 130.256 102.665 128.101Z" stroke="black" stroke-width="2" mask="url(#path-1-outside-1)"/>
<path fill-rule="evenodd" clip-rule="evenodd" d="M159.315 147.057C158.585 145.409 158.056 143.359 157.728 140.907C153.898 145.853 148.919 148.325 142.791 148.325C136.991 148.325 132.176 146.381 128.346 142.492C124.552 138.604 122.655 133.701 122.655 127.784C122.655 120.514 124.971 114.935 129.604 111.046C134.273 107.157 141.003 105.192 149.794 105.15H157.071V101.219C157.071 98.049 156.36 95.513 154.938 93.611C153.551 91.709 151.345 90.758 148.317 90.758C145.654 90.758 143.557 91.4977 142.025 92.977C140.529 94.4564 139.781 96.4852 139.781 99.0634H123.968C123.968 95.0904 125.026 91.4132 127.142 88.0318C129.258 84.6505 132.249 82.0089 136.115 80.1069C139.982 78.1626 144.323 77.1905 149.138 77.1905C156.433 77.1905 162.215 79.3249 166.483 83.5939C170.787 87.8205 172.939 93.7801 172.939 101.473V131.207C172.976 137.716 173.76 142.64 175.292 145.979V147.057H159.315ZM152.694 132.539C150.724 133.722 148.572 134.314 146.238 134.314C143.83 134.314 141.933 133.574 140.547 132.095C139.161 130.615 138.468 128.735 138.468 126.452L138.523 125.374C139.033 119.034 143.247 115.864 151.162 115.864H157.071V127.657C156.123 129.686 154.664 131.313 152.694 132.539Z" stroke="black" stroke-width="2" mask="url(#path-1-outside-1)"/>
<path d="M191.935 78.4585L192.428 86.1298C196.623 80.1703 202.295 77.1905 209.444 77.1905C217.068 77.1905 222.303 80.6775 225.148 87.6514C229.306 80.6775 235.234 77.1905 242.931 77.1905C249.351 77.1905 254.129 79.3672 257.266 83.7206C260.403 88.0318 261.972 94.5409 261.972 103.248V147.057H246.104V103.311C246.104 99.4227 245.447 96.5908 244.134 94.8156C242.821 92.9982 240.505 92.0894 237.185 92.0894C232.443 92.0894 229.16 94.71 227.337 99.951L227.391 147.057H211.578V103.375C211.578 99.4016 210.904 96.5274 209.554 94.7522C208.204 92.977 205.906 92.0894 202.66 92.0894C198.173 92.0894 194.926 94.245 192.92 98.5562V147.057H177.107V78.4585H191.935Z" stroke="black" stroke-width="2" mask="url(#path-1-outside-1)"/>
<path d="M281.795 147.057H265.927V49.6749H281.795V147.057Z" stroke="black" stroke-width="2" mask="url(#path-1-outside-1)"/>
<path fill-rule="evenodd" clip-rule="evenodd" d="M323.014 147.057C322.284 145.409 321.755 143.359 321.427 140.907C317.597 145.853 312.618 148.325 306.489 148.325C300.69 148.325 295.875 146.381 292.044 142.492C288.251 138.604 286.354 133.701 286.354 127.784C286.354 120.514 288.67 114.935 293.303 111.046C297.972 107.157 304.702 105.192 313.493 105.15H320.77V101.219C320.77 98.049 320.059 95.513 318.636 93.611C317.25 91.709 315.043 90.758 312.016 90.758C309.353 90.758 307.255 91.4977 305.723 92.977C304.228 94.4564 303.48 96.4852 303.48 99.0634H287.667C287.667 95.0904 288.725 91.4132 290.841 88.0318C292.956 84.6505 295.948 82.0089 299.814 80.1069C303.681 78.1626 308.022 77.1905 312.837 77.1905C320.132 77.1905 325.914 79.3249 330.181 83.5939C334.486 87.8205 336.638 93.7801 336.638 101.473V131.207C336.674 137.716 337.459 142.64 338.991 145.979V147.057H323.014ZM316.393 132.539C314.423 133.722 312.271 134.314 309.937 134.314C307.529 134.314 305.632 133.574 304.246 132.095C302.86 130.615 302.167 128.735 302.167 126.452L302.222 125.374C302.732 119.034 306.945 115.864 314.861 115.864H320.77V127.657C319.822 129.686 318.363 131.313 316.393 132.539Z" stroke="black" stroke-width="2" mask="url(#path-1-outside-1)"/>
<path d="M362.31 119.542L356.619 126.135V147.057H340.806V49.6749H356.619V103.628L359.683 99.0634L374.839 78.4585H393.826L372.432 107.052L395.686 147.057H377.521L362.31 119.542Z" stroke="black" stroke-width="2" mask="url(#path-1-outside-1)"/>
<path d="M401.486 138.054C401.486 135.138 402.325 132.771 404.003 130.954C405.717 129.136 407.851 128.227 410.405 128.227C412.995 128.227 415.129 129.136 416.807 130.954C418.521 132.771 419.378 135.138 419.378 138.054C419.378 140.928 418.539 143.274 416.861 145.092C415.183 146.867 413.031 147.755 410.405 147.755C407.815 147.755 405.681 146.867 404.003 145.092C402.325 143.274 401.486 140.928 401.486 138.054Z" stroke="black" stroke-width="2" mask="url(#path-1-outside-1)"/>
</svg>
