<svg width="76" height="21" viewBox="0 0 76 21" fill="none" xmlns="http://www.w3.org/2000/svg">
<path d="M5.27224 20.7929C3.90827 20.7929 2.2383 20.6451 0.2623 20.3493V17.4803C2.69295 17.8944 4.38041 18.1014 5.3247 18.1014C6.12908 18.1014 6.72363 18.0127 7.10834 17.8352C7.49305 17.6577 7.6854 17.3324 7.6854 16.8591V15.9718C7.6854 15.4789 7.56299 15.1338 7.31818 14.9366C7.07336 14.7197 6.59248 14.6113 5.87553 14.6113H4.22303C2.87656 14.6113 1.8361 14.3155 1.10166 13.7239C0.36722 13.1127 0 12.2253 0 11.062V9.3169C0 8.07464 0.524601 7.19718 1.5738 6.6845C2.623 6.15211 4.20555 5.88591 6.32144 5.88591C7.1608 5.88591 8.66465 5.97464 10.833 6.15211V8.90281C8.10508 8.66619 6.56625 8.54788 6.21652 8.54788C5.1848 8.54788 4.51157 8.62675 4.1968 8.7845C3.91702 8.96197 3.77712 9.28732 3.77712 9.76056V10.5296C3.77712 10.7859 3.89079 11.0127 4.11811 11.2099C4.34544 11.3873 4.67769 11.4761 5.11486 11.4761H6.79358C9.90621 11.4761 11.4625 12.6197 11.4625 14.907V16.7113C11.4625 17.4014 11.3489 18.0028 11.1215 18.5155C10.8942 19.0282 10.5969 19.4324 10.2297 19.7282C9.87998 20.0042 9.42532 20.2211 8.86575 20.3789C8.32366 20.5366 7.75534 20.6451 7.1608 20.7042C6.61871 20.7634 5.98919 20.7929 5.27224 20.7929Z" fill="#09F755"/>
<path d="M45.6402 0H49.4698V20.7042H45.6402V0Z" fill="#09F755"/>
<path d="M16.2276 21C15.0385 21 14.1467 20.8817 13.5522 20.6451C12.9751 20.3887 12.5642 19.9451 12.3194 19.3141C12.092 18.6634 11.9784 17.6972 11.9784 16.4155C11.9784 15.2718 12.1008 14.3746 12.3456 13.7239C12.6079 13.0732 13.0188 12.6099 13.5784 12.3338C14.1555 12.038 14.9424 11.8901 15.9391 11.8901H20.2408V10.9141C20.2408 10.3028 20.1621 9.8493 20.0047 9.55352C19.8649 9.25775 19.5938 9.05071 19.1916 8.9324C18.8069 8.81409 18.2211 8.75493 17.4342 8.75493C16.35 8.75493 14.8637 8.87324 12.9751 9.10986V6.38873C14.3566 6.19155 15.9741 6.09296 17.8277 6.09296C19.4539 6.09296 20.7042 6.23099 21.5786 6.50704C22.4704 6.7831 23.1086 7.25634 23.4933 7.92676C23.8781 8.59718 24.0704 9.57324 24.0704 10.8549V20.7042H20.3195V19.4028C20.0222 19.9746 19.62 20.3789 19.1129 20.6155C18.6058 20.8718 17.6441 21 16.2276 21ZM17.7227 18.3084C18.4921 18.3084 19.043 18.2789 19.3752 18.2197C19.62 18.1803 19.7862 18.1211 19.8736 18.0423C19.9785 17.9634 20.066 17.8352 20.1359 17.6577C20.2059 17.5197 20.2408 17.3127 20.2408 17.0366V14.2563H17.6178C17.0233 14.2563 16.6036 14.3056 16.3588 14.4042C16.114 14.4831 15.9479 14.6606 15.8604 14.9366C15.773 15.193 15.7293 15.6563 15.7293 16.3268C15.7293 16.9775 15.773 17.431 15.8604 17.6873C15.9479 17.9437 16.114 18.1113 16.3588 18.1901C16.6211 18.269 17.0757 18.3084 17.7227 18.3084Z" fill="#09F755"/>
<path d="M63.0948 0H66.9244V20.7042H63.0948V0ZM67.0818 12.6592L71.2524 6.38873H75.6328L71.2261 12.6296L76 20.7042H71.6721L67.0818 12.6592Z" fill="#09F755"/>
<path d="M25.1196 6.38873H28.9492V8.1338C29.194 6.77324 30.4443 6.09296 32.7001 6.09296C33.8892 6.09296 34.7898 6.27043 35.4018 6.62536C36.0138 6.96057 36.4248 7.49296 36.6346 8.22254C36.8445 7.47324 37.2466 6.93099 37.8412 6.59577C38.4532 6.26056 39.3713 6.09296 40.5953 6.09296C41.697 6.09296 42.5451 6.24085 43.1397 6.53662C43.7342 6.81268 44.1451 7.24648 44.3725 7.83803C44.6173 8.42958 44.7397 9.21831 44.7397 10.2042V20.7042H40.9101V10.7958C40.9101 10.1648 40.8751 9.72113 40.8052 9.46479C40.7352 9.18873 40.5779 9.00141 40.333 8.90282C40.1057 8.80423 39.7035 8.75493 39.1265 8.75493C38.4095 8.75493 37.8937 8.80423 37.5789 8.90282C37.2816 9.00141 37.0805 9.18873 36.9756 9.46479C36.8882 9.72113 36.8444 10.1648 36.8444 10.7958V20.7042H33.0149V10.7958C33.0149 10.1648 32.9799 9.72113 32.9099 9.46479C32.84 9.18873 32.6826 9.00141 32.4378 8.90282C32.2105 8.80423 31.8083 8.75493 31.2312 8.75493C30.5143 8.75493 29.9984 8.80423 29.6836 8.90282C29.3864 9.00141 29.1853 9.18873 29.0804 9.46479C28.9929 9.72113 28.9492 10.1648 28.9492 10.7958V20.7042H25.1196V6.38873Z" fill="#09F755"/>
<path d="M54.3427 20.9803C53.1536 20.9803 52.2618 20.862 51.6673 20.6253C51.0902 20.369 50.6793 19.9253 50.4345 19.2944C50.2071 18.6437 50.0935 17.6775 50.0935 16.3958C50.0935 15.2521 50.2159 14.3549 50.4607 13.7042C50.723 13.0535 51.1339 12.5901 51.6935 12.3141C52.2706 12.0183 53.0575 11.8704 54.0542 11.8704H58.3559V10.8944C58.3559 10.2831 58.2772 9.82957 58.1199 9.5338C57.98 9.23802 57.7089 9.03098 57.3067 8.91267C56.922 8.79436 56.3362 8.73521 55.5493 8.73521C54.4651 8.73521 52.9788 8.85352 51.0902 9.09014V6.36901C52.4717 6.17182 54.0892 6.07323 55.9428 6.07323C57.569 6.07323 58.8193 6.21126 59.6937 6.48732C60.5855 6.76337 61.2237 7.23661 61.6085 7.90704C61.9932 8.57746 62.1855 9.55351 62.1855 10.8352V20.6845H58.4346V19.3831C58.1373 19.9549 57.7352 20.3591 57.228 20.5958C56.7209 20.8521 55.7592 20.9803 54.3427 20.9803ZM55.8378 18.2887C56.6073 18.2887 57.1581 18.2591 57.4903 18.2C57.7351 18.1606 57.9013 18.1014 57.9887 18.0225C58.0936 17.9437 58.1811 17.8155 58.251 17.638C58.321 17.5 58.3559 17.293 58.3559 17.0169V14.2366H55.7329C55.1384 14.2366 54.7187 14.2859 54.4739 14.3845C54.2291 14.4634 54.063 14.6408 53.9755 14.9169C53.8881 15.1732 53.8444 15.6366 53.8444 16.307C53.8444 16.9577 53.8881 17.4113 53.9755 17.6676C54.063 17.9239 54.2291 18.0915 54.4739 18.1704C54.7362 18.2493 55.1908 18.2887 55.8378 18.2887Z" fill="#09F755"/>
</svg>
